# WaveFront *.obj file (generated by CINEMA 4D)

mtllib ./target.mtl

v -5.14964199066162 -2.22744727134705 2.58901381492615
v -5.14964199066162 2.3778760433197 2.58901381492615
v -4.17081260681152 -2.22744727134705 2.58901381492615
v -4.17081260681152 2.3778760433197 2.58901381492615
v -4.17081260681152 -2.22744727134705 0.13738216459751
v -4.17081260681152 2.3778760433197 0.13738216459751
v -5.14964199066162 -2.22744727134705 0.13738216459751
v -5.14964199066162 2.3778760433197 0.13738216459751
v -2.33274078369141 -2.22744727134705 2.58901381492615
v -2.33274078369141 2.3778760433197 2.58901381492615
v -1.35391116142273 -2.22744727134705 2.58901381492615
v -1.35391116142273 2.3778760433197 2.58901381492615
v -1.35391116142273 -2.22744727134705 0.13738216459751
v -1.35391116142273 2.3778760433197 0.13738216459751
v -2.33274078369141 -2.22744727134705 0.13738216459751
v -2.33274078369141 2.3778760433197 0.13738216459751
v -5.98913717269897 -0.42524874210358 2.78728699684143
v -5.98913717269897 4.1800742149353 2.78728699684143
v -0.16720382869244 -0.42524874210358 2.78728699684143
v -0.16720382869244 4.1800742149353 2.78728699684143
v -0.16720382869244 -0.42524874210358 0.33565539121628
v -0.16720382869244 4.1800742149353 0.33565539121628
v -5.98913717269897 -0.42524874210358 0.33565539121628
v -5.98913717269897 4.1800742149353 0.33565539121628
v -5.08850717544556 3.66062879562378 3.71738982200623
v -5.08850717544556 7.60527944564819 4.49555826187134
v -1.06783401966095 3.66062879562378 3.71738982200623
v -1.06783401966095 7.60527944564819 4.49555826187134
v -1.06783401966095 4.43879699707031 -0.22726057469845
v -1.06783401966095 8.38344764709473 0.55090773105621
v -5.08850717544556 4.43879699707031 -0.22726057469845
v -5.08850717544556 8.38344764709473 0.55090773105621
# 32 vertices

vn 0 0 1
vn 1 0 0
vn 0 0 -1
vn -1 0 0
vn 0 1 0
vn 0 -1 0
vn 0 -0.19354182481766 0.98109203577042
vn 0 0.19354179501534 -0.98109203577042
vn 0 0.98109203577042 0.19354176521301
vn 0 -0.98109203577042 -0.19354178011417
# 10 normals

vt 0 0 0
vt 0 1 0
vt 1 1 0
vt 1 0 0
# 4 texture coordinates

o Cube.4
usemtl Mat
f 3/4/1 4/3/1 2/2/1 1/1/1
f 5/4/2 6/3/2 4/2/2 3/1/2
f 7/4/3 8/3/3 6/2/3 5/1/3
f 1/4/4 2/3/4 8/2/4 7/1/4
f 4/4/5 6/3/5 8/2/5 2/1/5
f 5/4/6 3/3/6 1/2/6 7/1/6
f 11/4/1 12/3/1 10/2/1 9/1/1
f 13/4/2 14/3/2 12/2/2 11/1/2
f 15/4/3 16/3/3 14/2/3 13/1/3
f 9/4/4 10/3/4 16/2/4 15/1/4
f 12/4/5 14/3/5 16/2/5 10/1/5
f 13/4/6 11/3/6 9/2/6 15/1/6
f 19/4/1 20/3/1 18/2/1 17/1/1
f 21/4/2 22/3/2 20/2/2 19/1/2
f 23/4/3 24/3/3 22/2/3 21/1/3
f 17/4/4 18/3/4 24/2/4 23/1/4
f 20/4/5 22/3/5 24/2/5 18/1/5
f 21/4/6 19/3/6 17/2/6 23/1/6
f 27/4/7 28/3/7 26/2/7 25/1/7
f 29/4/2 30/3/2 28/2/2 27/1/2
f 31/4/8 32/3/8 30/2/8 29/1/8
f 25/4/4 26/3/4 32/2/4 31/1/4
f 28/4/9 30/3/9 32/2/9 26/1/9
f 29/4/10 27/3/10 25/2/10 31/1/10

